<svg width="32" height="33" viewBox="0 0 32 33" fill="none" xmlns="http://www.w3.org/2000/svg">
<path d="M16 0.657837C11.658 0.657837 11.112 0.677837 9.406 0.753837C7.7 0.833837 6.538 1.10184 5.52 1.49784C4.45169 1.89849 3.48428 2.52863 2.686 3.34384C1.8708 4.14212 1.24065 5.10953 0.84 6.17784C0.444 7.19384 0.174 8.35784 0.096 10.0578C0.02 11.7678 0 12.3118 0 16.6598C0 21.0038 0.02 21.5478 0.096 23.2538C0.176 24.9578 0.444 26.1198 0.84 27.1378C1.25 28.1898 1.796 29.0818 2.686 29.9718C3.574 30.8618 4.466 31.4098 5.518 31.8178C6.538 32.2138 7.698 32.4838 9.402 32.5618C11.11 32.6378 11.654 32.6578 16 32.6578C20.346 32.6578 20.888 32.6378 22.596 32.5618C24.298 32.4818 25.464 32.2138 26.482 31.8178C27.5496 31.4169 28.5163 30.7868 29.314 29.9718C30.204 29.0818 30.75 28.1898 31.16 27.1378C31.554 26.1198 31.824 24.9578 31.904 23.2538C31.98 21.5478 32 21.0038 32 16.6578C32 12.3118 31.98 11.7678 31.904 10.0598C31.824 8.35784 31.554 7.19384 31.16 6.17784C30.7593 5.10953 30.1292 4.14212 29.314 3.34384C28.5157 2.52863 27.5483 1.89849 26.48 1.49784C25.46 1.10184 24.296 0.831837 22.594 0.753837C20.886 0.677837 20.344 0.657837 15.996 0.657837H16ZM14.566 3.54184H16.002C20.274 3.54184 20.78 3.55584 22.466 3.63384C24.026 3.70384 24.874 3.96584 25.438 4.18384C26.184 4.47384 26.718 4.82184 27.278 5.38184C27.838 5.94184 28.184 6.47384 28.474 7.22184C28.694 7.78384 28.954 8.63184 29.024 10.1918C29.102 11.8778 29.118 12.3838 29.118 16.6538C29.118 20.9238 29.102 21.4318 29.024 23.1178C28.954 24.6778 28.692 25.5238 28.474 26.0878C28.2157 26.7816 27.8065 27.4094 27.276 27.9258C26.716 28.4858 26.184 28.8318 25.436 29.1218C24.876 29.3418 24.028 29.6018 22.466 29.6738C20.78 29.7498 20.274 29.7678 16.002 29.7678C11.73 29.7678 11.222 29.7498 9.536 29.6738C7.976 29.6018 7.13 29.3418 6.566 29.1218C5.87167 28.8643 5.2432 28.4558 4.726 27.9258C4.19455 27.409 3.78466 26.7805 3.526 26.0858C3.308 25.5238 3.046 24.6758 2.976 23.1158C2.9 21.4298 2.884 20.9238 2.884 16.6498C2.884 12.3758 2.9 11.8738 2.976 10.1878C3.048 8.62784 3.308 7.77984 3.528 7.21584C3.818 6.46984 4.166 5.93584 4.726 5.37584C5.286 4.81584 5.818 4.46984 6.566 4.17984C7.13 3.95984 7.976 3.69984 9.536 3.62784C11.012 3.55984 11.584 3.53984 14.566 3.53784V3.54184ZM24.542 6.19784C24.2899 6.19784 24.0402 6.2475 23.8072 6.34399C23.5743 6.44048 23.3626 6.5819 23.1844 6.76019C23.0061 6.93848 22.8646 7.15014 22.7682 7.38308C22.6717 7.61603 22.622 7.8657 22.622 8.11784C22.622 8.36998 22.6717 8.61964 22.7682 8.85259C22.8646 9.08553 23.0061 9.29719 23.1844 9.47548C23.3626 9.65377 23.5743 9.7952 23.8072 9.89169C24.0402 9.98817 24.2899 10.0378 24.542 10.0378C25.0512 10.0378 25.5396 9.83555 25.8996 9.47548C26.2597 9.11541 26.462 8.62705 26.462 8.11784C26.462 7.60862 26.2597 7.12026 25.8996 6.76019C25.5396 6.40012 25.0512 6.19784 24.542 6.19784ZM16.002 8.44184C14.9121 8.42483 13.8298 8.62481 12.818 9.03012C11.8061 9.43543 10.885 10.038 10.1083 10.8027C9.33157 11.5674 8.71473 12.479 8.29368 13.4844C7.87264 14.4897 7.6558 15.5688 7.6558 16.6588C7.6558 17.7488 7.87264 18.8279 8.29368 19.8333C8.71473 20.8387 9.33157 21.7503 10.1083 22.515C10.885 23.2797 11.8061 23.8822 12.818 24.2876C13.8298 24.6929 14.9121 24.8928 16.002 24.8758C18.1591 24.8422 20.2164 23.9617 21.73 22.4243C23.2435 20.887 24.0918 18.8162 24.0918 16.6588C24.0918 14.5015 23.2435 12.4307 21.73 10.8933C20.2164 9.35601 18.1591 8.47549 16.002 8.44184ZM16.002 11.3238C16.7025 11.3238 17.3961 11.4618 18.0432 11.7299C18.6904 11.9979 19.2784 12.3908 19.7737 12.8861C20.269 13.3814 20.6619 13.9695 20.93 14.6166C21.198 15.2638 21.336 15.9574 21.336 16.6578C21.336 17.3583 21.198 18.0519 20.93 18.6991C20.6619 19.3462 20.269 19.9342 19.7737 20.4295C19.2784 20.9249 18.6904 21.3178 18.0432 21.5858C17.3961 21.8539 16.7025 21.9918 16.002 21.9918C14.5873 21.9918 13.2306 21.4299 12.2303 20.4295C11.23 19.4292 10.668 18.0725 10.668 16.6578C10.668 15.2432 11.23 13.8864 12.2303 12.8861C13.2306 11.8858 14.5873 11.3238 16.002 11.3238Z" fill="#F6F7F6"/>
</svg>
