<svg width="32" height="33" viewBox="0 0 32 33" fill="none" xmlns="http://www.w3.org/2000/svg">
<path d="M0 2.94984C0 1.68384 1.052 0.657837 2.35 0.657837H29.65C30.948 0.657837 32 1.68384 32 2.94984V30.3658C32 31.6318 30.948 32.6578 29.65 32.6578H2.35C1.052 32.6578 0 31.6318 0 30.3658V2.94984ZM9.886 27.4458V12.9958H5.084V27.4458H9.886ZM7.486 11.0218C9.16 11.0218 10.202 9.91384 10.202 8.52584C10.172 7.10784 9.162 6.02984 7.518 6.02984C5.874 6.02984 4.8 7.10984 4.8 8.52584C4.8 9.91384 5.842 11.0218 7.454 11.0218H7.486ZM17.302 27.4458V19.3758C17.302 18.9438 17.334 18.5118 17.462 18.2038C17.808 17.3418 18.598 16.4478 19.926 16.4478C21.664 16.4478 22.358 17.7718 22.358 19.7158V27.4458H27.16V19.1578C27.16 14.7178 24.792 12.6538 21.632 12.6538C19.084 12.6538 17.942 14.0538 17.302 15.0398V15.0898H17.27L17.302 15.0398V12.9958H12.502C12.562 14.3518 12.502 27.4458 12.502 27.4458H17.302Z" fill="#F6F7F6"/>
</svg>
