<svg width="220" height="45" viewBox="0 0 220 45" fill="none" xmlns="http://www.w3.org/2000/svg">
<g filter="url(#filter0_d_4332_15)">
<mask id="path-1-outside-1_4332_15" maskUnits="userSpaceOnUse" x="3" y="-1" width="214" height="39" fill="black">
<rect fill="white" x="3" y="-1" width="214" height="39"/>
<path d="M5.57813 36C5.31146 36 5.06146 35.9 4.82813 35.7C4.62813 35.4667 4.52813 35.2167 4.52813 34.95C4.52813 34.7833 4.54479 34.6333 4.57813 34.5L16.3281 2.4C16.4281 2.03333 16.6281 1.71666 16.9281 1.45C17.2615 1.15 17.7115 0.999998 18.2781 0.999998H25.6781C26.2448 0.999998 26.6781 1.15 26.9781 1.45C27.3115 1.71666 27.5281 2.03333 27.6281 2.4L39.3281 34.5C39.3948 34.6333 39.4281 34.7833 39.4281 34.95C39.4281 35.2167 39.3115 35.4667 39.0781 35.7C38.8781 35.9 38.6281 36 38.3281 36H32.1781C31.6781 36 31.2948 35.8833 31.0281 35.65C30.7948 35.3833 30.6448 35.15 30.5781 34.95L28.6281 29.85H15.2781L13.3781 34.95C13.3115 35.15 13.1615 35.3833 12.9281 35.65C12.6948 35.8833 12.2948 36 11.7281 36H5.57813ZM17.3281 22.65H26.6281L21.9281 9.45L17.3281 22.65ZM43.6191 36C43.2525 36 42.9525 35.8833 42.7191 35.65C42.4858 35.4167 42.3691 35.1167 42.3691 34.75V2.25C42.3691 1.88333 42.4858 1.58333 42.7191 1.35C42.9525 1.11666 43.2525 0.999998 43.6191 0.999998H50.3191C50.6858 0.999998 50.9858 1.11666 51.2191 1.35C51.4525 1.58333 51.5691 1.88333 51.5691 2.25V34.75C51.5691 35.1167 51.4525 35.4167 51.2191 35.65C50.9858 35.8833 50.6858 36 50.3191 36H43.6191ZM63.9801 36C63.6134 36 63.3467 35.9 63.1801 35.7C63.0134 35.4667 62.9634 35.1833 63.0301 34.85L69.2801 5.45H59.6801C59.3467 5.45 59.0967 5.35 58.9301 5.15C58.7634 4.91667 58.7134 4.63333 58.7801 4.3L59.2301 2.2C59.2967 1.83333 59.4467 1.55 59.6801 1.35C59.9467 1.11666 60.2634 0.999998 60.6301 0.999998H84.7301C85.0967 0.999998 85.3467 1.11666 85.4801 1.35C85.6467 1.55 85.6967 1.83333 85.6301 2.2L85.1801 4.3C85.1134 4.63333 84.9467 4.91667 84.6801 5.15C84.4467 5.35 84.1467 5.45 83.7801 5.45H74.2301L67.9801 34.85C67.9134 35.1833 67.7467 35.4667 67.4801 35.7C67.2467 35.9 66.9467 36 66.5801 36H63.9801ZM95.891 36.5C93.9243 36.5 92.141 36.2333 90.541 35.7C88.941 35.1333 87.6243 34.2833 86.591 33.15C85.5577 32.0167 84.841 30.5833 84.441 28.85C84.0743 27.1167 84.091 25.0833 84.491 22.75C84.7577 21.2833 85.041 19.8833 85.341 18.55C85.641 17.1833 85.9743 15.7667 86.341 14.3C87.441 9.66667 89.3743 6.21667 92.141 3.95C94.941 1.65 98.441 0.499998 102.641 0.499998C104.641 0.499998 106.424 0.783332 107.991 1.35C109.591 1.91666 110.908 2.78333 111.941 3.95C113.008 5.11667 113.724 6.55 114.091 8.25C114.458 9.95 114.441 11.9667 114.041 14.3C113.774 15.7667 113.491 17.1833 113.191 18.55C112.891 19.8833 112.574 21.2833 112.241 22.75C111.108 27.45 109.141 30.9167 106.341 33.15C103.574 35.3833 100.091 36.5 95.891 36.5ZM96.091 32.25C98.7243 32.25 101.041 31.4833 103.041 29.95C105.041 28.4167 106.458 25.9333 107.291 22.5C107.658 21 107.958 19.6667 108.191 18.5C108.458 17.3 108.724 15.9667 108.991 14.5C109.624 11.0667 109.358 8.58333 108.191 7.05C107.058 5.51667 105.141 4.75 102.441 4.75C99.7743 4.75 97.4577 5.51667 95.491 7.05C93.5243 8.58333 92.1243 11.0667 91.291 14.5C90.9243 15.9667 90.6077 17.3 90.341 18.5C90.0743 19.6667 89.8077 21 89.541 22.5C88.941 25.9333 89.191 28.4167 90.291 29.95C91.4243 31.4833 93.3577 32.25 96.091 32.25ZM116.979 36C116.646 36 116.396 35.9 116.229 35.7C116.062 35.4667 116.012 35.1833 116.079 34.85L123.029 2.2C123.096 1.83333 123.246 1.55 123.479 1.35C123.746 1.11666 124.046 0.999998 124.379 0.999998H135.179C137.412 0.999998 139.379 1.3 141.079 1.9C142.779 2.46667 144.162 3.33333 145.229 4.5C146.296 5.63333 147.012 7.05 147.379 8.75C147.779 10.45 147.762 12.3833 147.329 14.55C147.029 16.05 146.762 17.3667 146.529 18.5C146.296 19.6333 145.996 20.9333 145.629 22.4C144.929 25.4667 143.929 28.0167 142.629 30.05C141.329 32.05 139.596 33.55 137.429 34.55C135.296 35.5167 132.546 36 129.179 36H116.979ZM121.629 31.75H129.229C131.529 31.75 133.429 31.4333 134.929 30.8C136.429 30.1667 137.629 29.15 138.529 27.75C139.462 26.35 140.196 24.5 140.729 22.2C140.962 21.2 141.162 20.3333 141.329 19.6C141.529 18.8333 141.696 18.0833 141.829 17.35C141.996 16.5833 142.162 15.7167 142.329 14.75C142.962 11.5167 142.696 9.13333 141.529 7.6C140.396 6.03333 138.096 5.25 134.629 5.25H127.279L121.629 31.75ZM147.052 36C146.618 36 146.335 35.8333 146.202 35.5C146.035 35.1333 146.052 34.7833 146.252 34.45L165.502 2.1C165.702 1.76667 165.935 1.5 166.202 1.3C166.502 1.1 166.868 0.999998 167.302 0.999998H171.102C171.535 0.999998 171.852 1.1 172.052 1.3C172.285 1.5 172.418 1.76667 172.452 2.1L177.952 34.45C178.052 34.95 178.002 35.3333 177.802 35.6C177.602 35.8667 177.335 36 177.002 36H174.452C174.085 36 173.802 35.9167 173.602 35.75C173.402 35.55 173.268 35.2667 173.202 34.9L171.902 28.05H155.502L151.202 35.15C151.035 35.3833 150.835 35.5833 150.602 35.75C150.368 35.9167 150.085 36 149.752 36H147.052ZM157.852 23.75H171.402L168.352 6L157.852 23.75ZM192.394 36C192.061 36 191.794 35.9 191.594 35.7C191.427 35.4667 191.377 35.1833 191.444 34.85L193.944 23.05L186.244 2.65C186.111 2.25 186.161 1.88333 186.394 1.55C186.661 1.18333 187.011 0.999998 187.444 0.999998H189.794C190.094 0.999998 190.327 1.08333 190.494 1.25C190.694 1.38333 190.844 1.58333 190.944 1.85L197.144 17.95L210.144 1.85C210.311 1.58333 210.511 1.38333 210.744 1.25C211.011 1.08333 211.311 0.999998 211.644 0.999998H214.744C215.277 0.999998 215.561 1.18333 215.594 1.55C215.627 1.91667 215.511 2.28333 215.244 2.65L198.844 23.05L196.294 34.85C196.227 35.1833 196.077 35.4667 195.844 35.7C195.611 35.9 195.311 36 194.944 36H192.394Z"/>
</mask>
<path d="M5.57813 36C5.31146 36 5.06146 35.9 4.82813 35.7C4.62813 35.4667 4.52813 35.2167 4.52813 34.95C4.52813 34.7833 4.54479 34.6333 4.57813 34.5L16.3281 2.4C16.4281 2.03333 16.6281 1.71666 16.9281 1.45C17.2615 1.15 17.7115 0.999998 18.2781 0.999998H25.6781C26.2448 0.999998 26.6781 1.15 26.9781 1.45C27.3115 1.71666 27.5281 2.03333 27.6281 2.4L39.3281 34.5C39.3948 34.6333 39.4281 34.7833 39.4281 34.95C39.4281 35.2167 39.3115 35.4667 39.0781 35.7C38.8781 35.9 38.6281 36 38.3281 36H32.1781C31.6781 36 31.2948 35.8833 31.0281 35.65C30.7948 35.3833 30.6448 35.15 30.5781 34.95L28.6281 29.85H15.2781L13.3781 34.95C13.3115 35.15 13.1615 35.3833 12.9281 35.65C12.6948 35.8833 12.2948 36 11.7281 36H5.57813ZM17.3281 22.65H26.6281L21.9281 9.45L17.3281 22.65ZM43.6191 36C43.2525 36 42.9525 35.8833 42.7191 35.65C42.4858 35.4167 42.3691 35.1167 42.3691 34.75V2.25C42.3691 1.88333 42.4858 1.58333 42.7191 1.35C42.9525 1.11666 43.2525 0.999998 43.6191 0.999998H50.3191C50.6858 0.999998 50.9858 1.11666 51.2191 1.35C51.4525 1.58333 51.5691 1.88333 51.5691 2.25V34.75C51.5691 35.1167 51.4525 35.4167 51.2191 35.65C50.9858 35.8833 50.6858 36 50.3191 36H43.6191ZM63.9801 36C63.6134 36 63.3467 35.9 63.1801 35.7C63.0134 35.4667 62.9634 35.1833 63.0301 34.85L69.2801 5.45H59.6801C59.3467 5.45 59.0967 5.35 58.9301 5.15C58.7634 4.91667 58.7134 4.63333 58.7801 4.3L59.2301 2.2C59.2967 1.83333 59.4467 1.55 59.6801 1.35C59.9467 1.11666 60.2634 0.999998 60.6301 0.999998H84.7301C85.0967 0.999998 85.3467 1.11666 85.4801 1.35C85.6467 1.55 85.6967 1.83333 85.6301 2.2L85.1801 4.3C85.1134 4.63333 84.9467 4.91667 84.6801 5.15C84.4467 5.35 84.1467 5.45 83.7801 5.45H74.2301L67.9801 34.85C67.9134 35.1833 67.7467 35.4667 67.4801 35.7C67.2467 35.9 66.9467 36 66.5801 36H63.9801ZM95.891 36.5C93.9243 36.5 92.141 36.2333 90.541 35.7C88.941 35.1333 87.6243 34.2833 86.591 33.15C85.5577 32.0167 84.841 30.5833 84.441 28.85C84.0743 27.1167 84.091 25.0833 84.491 22.75C84.7577 21.2833 85.041 19.8833 85.341 18.55C85.641 17.1833 85.9743 15.7667 86.341 14.3C87.441 9.66667 89.3743 6.21667 92.141 3.95C94.941 1.65 98.441 0.499998 102.641 0.499998C104.641 0.499998 106.424 0.783332 107.991 1.35C109.591 1.91666 110.908 2.78333 111.941 3.95C113.008 5.11667 113.724 6.55 114.091 8.25C114.458 9.95 114.441 11.9667 114.041 14.3C113.774 15.7667 113.491 17.1833 113.191 18.55C112.891 19.8833 112.574 21.2833 112.241 22.75C111.108 27.45 109.141 30.9167 106.341 33.15C103.574 35.3833 100.091 36.5 95.891 36.5ZM96.091 32.25C98.7243 32.25 101.041 31.4833 103.041 29.95C105.041 28.4167 106.458 25.9333 107.291 22.5C107.658 21 107.958 19.6667 108.191 18.5C108.458 17.3 108.724 15.9667 108.991 14.5C109.624 11.0667 109.358 8.58333 108.191 7.05C107.058 5.51667 105.141 4.75 102.441 4.75C99.7743 4.75 97.4577 5.51667 95.491 7.05C93.5243 8.58333 92.1243 11.0667 91.291 14.5C90.9243 15.9667 90.6077 17.3 90.341 18.5C90.0743 19.6667 89.8077 21 89.541 22.5C88.941 25.9333 89.191 28.4167 90.291 29.95C91.4243 31.4833 93.3577 32.25 96.091 32.25ZM116.979 36C116.646 36 116.396 35.9 116.229 35.7C116.062 35.4667 116.012 35.1833 116.079 34.85L123.029 2.2C123.096 1.83333 123.246 1.55 123.479 1.35C123.746 1.11666 124.046 0.999998 124.379 0.999998H135.179C137.412 0.999998 139.379 1.3 141.079 1.9C142.779 2.46667 144.162 3.33333 145.229 4.5C146.296 5.63333 147.012 7.05 147.379 8.75C147.779 10.45 147.762 12.3833 147.329 14.55C147.029 16.05 146.762 17.3667 146.529 18.5C146.296 19.6333 145.996 20.9333 145.629 22.4C144.929 25.4667 143.929 28.0167 142.629 30.05C141.329 32.05 139.596 33.55 137.429 34.55C135.296 35.5167 132.546 36 129.179 36H116.979ZM121.629 31.75H129.229C131.529 31.75 133.429 31.4333 134.929 30.8C136.429 30.1667 137.629 29.15 138.529 27.75C139.462 26.35 140.196 24.5 140.729 22.2C140.962 21.2 141.162 20.3333 141.329 19.6C141.529 18.8333 141.696 18.0833 141.829 17.35C141.996 16.5833 142.162 15.7167 142.329 14.75C142.962 11.5167 142.696 9.13333 141.529 7.6C140.396 6.03333 138.096 5.25 134.629 5.25H127.279L121.629 31.75ZM147.052 36C146.618 36 146.335 35.8333 146.202 35.5C146.035 35.1333 146.052 34.7833 146.252 34.45L165.502 2.1C165.702 1.76667 165.935 1.5 166.202 1.3C166.502 1.1 166.868 0.999998 167.302 0.999998H171.102C171.535 0.999998 171.852 1.1 172.052 1.3C172.285 1.5 172.418 1.76667 172.452 2.1L177.952 34.45C178.052 34.95 178.002 35.3333 177.802 35.6C177.602 35.8667 177.335 36 177.002 36H174.452C174.085 36 173.802 35.9167 173.602 35.75C173.402 35.55 173.268 35.2667 173.202 34.9L171.902 28.05H155.502L151.202 35.15C151.035 35.3833 150.835 35.5833 150.602 35.75C150.368 35.9167 150.085 36 149.752 36H147.052ZM157.852 23.75H171.402L168.352 6L157.852 23.75ZM192.394 36C192.061 36 191.794 35.9 191.594 35.7C191.427 35.4667 191.377 35.1833 191.444 34.85L193.944 23.05L186.244 2.65C186.111 2.25 186.161 1.88333 186.394 1.55C186.661 1.18333 187.011 0.999998 187.444 0.999998H189.794C190.094 0.999998 190.327 1.08333 190.494 1.25C190.694 1.38333 190.844 1.58333 190.944 1.85L197.144 17.95L210.144 1.85C210.311 1.58333 210.511 1.38333 210.744 1.25C211.011 1.08333 211.311 0.999998 211.644 0.999998H214.744C215.277 0.999998 215.561 1.18333 215.594 1.55C215.627 1.91667 215.511 2.28333 215.244 2.65L198.844 23.05L196.294 34.85C196.227 35.1833 196.077 35.4667 195.844 35.7C195.611 35.9 195.311 36 194.944 36H192.394Z" fill="white"/>
<path d="M4.82813 35.7L4.06887 36.3508L4.11893 36.4092L4.17733 36.4593L4.82813 35.7ZM4.57813 34.5L3.63906 34.1563L3.62084 34.206L3.60798 34.2575L4.57813 34.5ZM16.3281 2.4L17.2672 2.74374L17.2817 2.70397L17.2929 2.66312L16.3281 2.4ZM16.9281 1.45L17.5925 2.19742L17.5971 2.19329L16.9281 1.45ZM26.9781 1.45L26.271 2.1571L26.3102 2.19627L26.3534 2.23087L26.9781 1.45ZM27.6281 2.4L26.6634 2.66311L26.6743 2.70331L26.6886 2.74245L27.6281 2.4ZM39.3281 34.5L38.3886 34.8424L38.4082 34.8961L38.4337 34.9472L39.3281 34.5ZM39.0781 35.7L39.7852 36.4071L39.7852 36.4071L39.0781 35.7ZM31.0281 35.65L30.2756 36.3085L30.3195 36.3587L30.3696 36.4026L31.0281 35.65ZM30.5781 34.95L31.5268 34.6338L31.5199 34.6132L31.5122 34.5929L30.5781 34.95ZM28.6281 29.85L29.5622 29.4929L29.3164 28.85H28.6281V29.85ZM15.2781 29.85V28.85H14.5835L14.341 29.5009L15.2781 29.85ZM13.3781 34.95L12.441 34.6009L12.435 34.6172L12.4294 34.6338L13.3781 34.95ZM12.9281 35.65L13.6352 36.3571L13.6588 36.3336L13.6807 36.3085L12.9281 35.65ZM17.3281 22.65L16.3838 22.3209L15.9207 23.65H17.3281V22.65ZM26.6281 22.65V23.65H28.0457L27.5702 22.3146L26.6281 22.65ZM21.9281 9.45L22.8702 9.11457L21.918 6.44029L20.9838 9.12092L21.9281 9.45ZM5.57813 35C5.57327 35 5.57007 34.9997 5.56202 34.9965C5.55205 34.9925 5.52394 34.9793 5.47892 34.9407L4.17733 36.4593C4.56264 36.7895 5.03683 37 5.57813 37V35ZM5.58738 35.0492C5.54879 35.0042 5.53559 34.9761 5.5316 34.9661C5.52838 34.9581 5.52813 34.9549 5.52813 34.95H3.52813C3.52813 35.4913 3.73861 35.9655 4.06887 36.3508L5.58738 35.0492ZM5.52813 34.95C5.52813 34.8484 5.53843 34.7819 5.54827 34.7425L3.60798 34.2575C3.55115 34.4848 3.52813 34.7182 3.52813 34.95H5.52813ZM5.51719 34.8437L17.2672 2.74374L15.3891 2.05626L3.63906 34.1563L5.51719 34.8437ZM17.2929 2.66312C17.3389 2.49434 17.4289 2.3428 17.5925 2.19741L16.2638 0.70259C15.8273 1.09053 15.5173 1.57232 15.3634 2.13688L17.2929 2.66312ZM17.5971 2.19329C17.7022 2.09872 17.891 2 18.2781 2V-2.38419e-06C17.5319 -2.38419e-06 16.8207 0.201274 16.2592 0.706703L17.5971 2.19329ZM18.2781 2H25.6781V-2.38419e-06H18.2781V2ZM25.6781 2C26.0715 2 26.2148 2.10093 26.271 2.1571L27.6852 0.742891C27.1414 0.19907 26.4181 -2.38419e-06 25.6781 -2.38419e-06V2ZM26.3534 2.23087C26.5428 2.38233 26.6258 2.5255 26.6634 2.66311L28.5929 2.13688C28.4304 1.54117 28.0802 1.051 27.6028 0.66913L26.3534 2.23087ZM26.6886 2.74245L38.3886 34.8424L40.2677 34.1576L28.5677 2.05755L26.6886 2.74245ZM38.4337 34.9472C38.4317 34.9432 38.4301 34.9393 38.4289 34.9359C38.4277 34.9326 38.4271 34.9303 38.4269 34.9294C38.4265 34.9275 38.4281 34.9335 38.4281 34.95H40.4281C40.4281 34.6466 40.3665 34.3406 40.2226 34.0528L38.4337 34.9472ZM38.4281 34.95C38.4281 34.9431 38.429 34.9348 38.4308 34.9266C38.4326 34.9185 38.4346 34.9143 38.4344 34.9146C38.434 34.9156 38.421 34.9429 38.371 34.9929L39.7852 36.4071C40.1589 36.0334 40.4281 35.5419 40.4281 34.95H38.4281ZM38.371 34.9929C38.3655 34.9985 38.3631 34.9999 38.3641 34.9992C38.3652 34.9985 38.3672 34.9973 38.3692 34.9965C38.3712 34.9957 38.3703 34.9964 38.3649 34.9974C38.3593 34.9984 38.3475 35 38.3281 35V37C38.8755 37 39.3854 36.8069 39.7852 36.4071L38.371 34.9929ZM38.3281 35H32.1781V37H38.3281V35ZM32.1781 35C31.8215 35 31.7083 34.9164 31.6866 34.8974L30.3696 36.4026C30.8813 36.8503 31.5347 37 32.1781 37V35ZM31.7807 34.9915C31.688 34.8856 31.6241 34.8 31.5818 34.7342C31.561 34.7019 31.5471 34.6769 31.5382 34.659C31.5292 34.6411 31.5265 34.6329 31.5268 34.6338L29.6294 35.2662C29.7573 35.6497 30.0063 36.0008 30.2756 36.3085L31.7807 34.9915ZM31.5122 34.5929L29.5622 29.4929L27.6941 30.2071L29.6441 35.3071L31.5122 34.5929ZM28.6281 28.85H15.2781V30.85H28.6281V28.85ZM14.341 29.5009L12.441 34.6009L14.3152 35.2991L16.2152 30.1991L14.341 29.5009ZM12.4294 34.6338C12.4297 34.6328 12.427 34.6411 12.4181 34.659C12.4092 34.6769 12.3953 34.7019 12.3744 34.7342C12.3322 34.8 12.2682 34.8856 12.1755 34.9915L13.6807 36.3085C13.95 36.0008 14.199 35.6497 14.3268 35.2662L12.4294 34.6338ZM12.221 34.9429C12.2505 34.9135 12.2533 34.9291 12.1731 34.9525C12.0901 34.9767 11.9483 35 11.7281 35V37C12.3825 37 13.118 36.8743 13.6352 36.3571L12.221 34.9429ZM11.7281 35H5.57813V37H11.7281V35ZM17.3281 23.65H26.6281V21.65H17.3281V23.65ZM27.5702 22.3146L22.8702 9.11457L20.9861 9.78543L25.6861 22.9854L27.5702 22.3146ZM20.9838 9.12092L16.3838 22.3209L18.2724 22.9791L22.8724 9.77907L20.9838 9.12092ZM42.7191 35.65L43.4262 34.9429L43.4262 34.9429L42.7191 35.65ZM42.7191 1.35L43.4262 2.05711L43.4262 2.0571L42.7191 1.35ZM51.2191 1.35L50.512 2.0571L50.512 2.05711L51.2191 1.35ZM51.2191 35.65L50.512 34.9429L51.2191 35.65ZM43.6191 35C43.4854 35 43.4504 34.967 43.4262 34.9429L42.012 36.3571C42.4546 36.7996 43.0196 37 43.6191 37V35ZM43.4262 34.9429C43.4021 34.9188 43.3691 34.8837 43.3691 34.75H41.3691C41.3691 35.3496 41.5695 35.9146 42.012 36.3571L43.4262 34.9429ZM43.3691 34.75V2.25H41.3691V34.75H43.3691ZM43.3691 2.25C43.3691 2.11625 43.4021 2.08124 43.4262 2.05711L42.012 0.64289C41.5695 1.08543 41.3691 1.65041 41.3691 2.25H43.3691ZM43.4262 2.0571C43.4504 2.03297 43.4854 2 43.6191 2V-2.38419e-06C43.0196 -2.38419e-06 42.4546 0.200355 42.012 0.642894L43.4262 2.0571ZM43.6191 2H50.3191V-2.38419e-06H43.6191V2ZM50.3191 2C50.4529 2 50.4879 2.03297 50.512 2.0571L51.9262 0.642894C51.4837 0.200356 50.9187 -2.38419e-06 50.3191 -2.38419e-06V2ZM50.512 2.05711C50.5362 2.08123 50.5691 2.11625 50.5691 2.25H52.5691C52.5691 1.65041 52.3688 1.08543 51.9262 0.642891L50.512 2.05711ZM50.5691 2.25V34.75H52.5691V2.25H50.5691ZM50.5691 34.75C50.5691 34.8837 50.5362 34.9188 50.512 34.9429L51.9262 36.3571C52.3688 35.9146 52.5691 35.3496 52.5691 34.75H50.5691ZM50.512 34.9429C50.4879 34.967 50.4529 35 50.3191 35V37C50.9187 37 51.4837 36.7996 51.9262 36.3571L50.512 34.9429ZM50.3191 35H43.6191V37H50.3191V35ZM63.1801 35.7L62.3663 36.2812L62.388 36.3116L62.4119 36.3402L63.1801 35.7ZM63.0301 34.85L62.0519 34.642L62.0495 34.6539L63.0301 34.85ZM69.2801 5.45L70.2582 5.65794L70.515 4.45H69.2801V5.45ZM58.9301 5.15L58.1163 5.73124L58.138 5.76156L58.1619 5.79018L58.9301 5.15ZM58.7801 4.3L57.8022 4.09045L57.7995 4.10388L58.7801 4.3ZM59.2301 2.2L60.2079 2.40953L60.2112 2.39425L60.2139 2.37888L59.2301 2.2ZM59.6801 1.35L60.3309 2.1093L60.3386 2.10257L59.6801 1.35ZM85.4801 1.35L84.6118 1.84614L84.6555 1.92256L84.7119 1.99018L85.4801 1.35ZM85.6301 2.2L86.6079 2.40953L86.6112 2.39425L86.614 2.37888L85.6301 2.2ZM85.1801 4.3L84.2022 4.09045L84.1995 4.10388L85.1801 4.3ZM84.6801 5.15L85.3309 5.90929L85.3386 5.90257L84.6801 5.15ZM74.2301 5.45V4.45H73.4203L73.2519 5.24206L74.2301 5.45ZM67.9801 34.85L67.0019 34.642L66.9995 34.6539L67.9801 34.85ZM67.4801 35.7L68.1309 36.4593L68.1386 36.4526L67.4801 35.7ZM63.9801 35C63.9334 35 63.9007 34.9968 63.8798 34.9935C63.8591 34.9902 63.8524 34.9873 63.8562 34.9887C63.8605 34.9903 63.8743 34.9961 63.893 35.0091C63.9122 35.0223 63.9314 35.0396 63.9483 35.0598L62.4119 36.3402C62.8368 36.8501 63.4431 37 63.9801 37V35ZM63.9938 35.1188C63.9944 35.1196 63.9968 35.1232 63.9991 35.1289C64.0002 35.1315 64.0011 35.1339 64.0016 35.1358C64.0022 35.1378 64.0024 35.1388 64.0024 35.1387C64.0024 35.1387 64.0012 35.1323 64.0016 35.1176C64.002 35.1028 64.004 35.0793 64.0107 35.0461L62.0495 34.6539C61.9395 35.2037 62.0093 35.7814 62.3663 36.2812L63.9938 35.1188ZM64.0082 35.0579L70.2582 5.65794L68.3019 5.24206L62.0519 34.6421L64.0082 35.0579ZM69.2801 4.45H59.6801V6.45H69.2801V4.45ZM59.6801 4.45C59.6114 4.45 59.5964 4.4395 59.614 4.44652C59.6232 4.45023 59.638 4.45747 59.655 4.46972C59.6722 4.48207 59.6869 4.49611 59.6983 4.50982L58.1619 5.79018C58.5694 6.27921 59.1398 6.45 59.6801 6.45V4.45ZM59.7438 4.56876C59.7444 4.56959 59.7468 4.5732 59.7491 4.5789C59.7502 4.58151 59.7511 4.58389 59.7516 4.58584C59.7522 4.58778 59.7524 4.58881 59.7524 4.58871C59.7524 4.58871 59.7512 4.58226 59.7516 4.56764C59.752 4.55278 59.754 4.5293 59.7607 4.49612L57.7995 4.10388C57.6895 4.65368 57.7593 5.23137 58.1163 5.73124L59.7438 4.56876ZM59.7579 4.50953L60.2079 2.40953L58.2523 1.99047L57.8023 4.09047L59.7579 4.50953ZM60.2139 2.37888C60.2486 2.18843 60.3068 2.12989 60.3309 2.10926L59.0293 0.590742C58.5867 0.970104 58.3449 1.47824 58.2462 2.02111L60.2139 2.37888ZM60.3386 2.10257C60.4161 2.03472 60.4964 2 60.6301 2V-2.38419e-06C60.0304 -2.38419e-06 59.4774 0.198609 59.0216 0.597424L60.3386 2.10257ZM60.6301 2H84.7301V-2.38419e-06H60.6301V2ZM84.7301 2C84.8131 2 84.8131 2.01396 84.7697 1.99368C84.7462 1.98271 84.7154 1.9641 84.6839 1.93536C84.6523 1.90645 84.6283 1.87495 84.6118 1.84614L86.3483 0.853861C85.9741 0.198891 85.3077 -2.38419e-06 84.7301 -2.38419e-06V2ZM84.7119 1.99018C84.6941 1.96887 84.6803 1.94608 84.6707 1.92468C84.6613 1.90379 84.6584 1.88962 84.6578 1.88629C84.6573 1.88346 84.6591 1.89208 84.6585 1.91499C84.6579 1.93803 84.655 1.97288 84.6462 2.02111L86.614 2.37888C86.7099 1.85105 86.6756 1.22261 86.2483 0.709814L84.7119 1.99018ZM84.6523 1.99047L84.2023 4.09047L86.1579 4.50953L86.6079 2.40953L84.6523 1.99047ZM84.1995 4.10388C84.1779 4.21171 84.1301 4.30247 84.0216 4.39742L85.3386 5.90257C85.7634 5.53086 86.0489 5.05496 86.1607 4.49612L84.1995 4.10388ZM84.0293 4.39074C84.0108 4.4066 83.9564 4.45 83.7801 4.45V6.45C84.3371 6.45 84.8827 6.2934 85.3309 5.90925L84.0293 4.39074ZM83.7801 4.45H74.2301V6.45H83.7801V4.45ZM73.2519 5.24206L67.0019 34.6421L68.9582 35.0579L75.2082 5.65794L73.2519 5.24206ZM66.9995 34.6539C66.9779 34.7617 66.9301 34.8525 66.8216 34.9474L68.1386 36.4526C68.5634 36.0809 68.8489 35.605 68.9607 35.0461L66.9995 34.6539ZM66.8293 34.9407C66.8108 34.9566 66.7564 35 66.5801 35V37C67.1371 37 67.6827 36.8434 68.1309 36.4593L66.8293 34.9407ZM66.5801 35H63.9801V37H66.5801V35ZM90.541 35.7L90.2072 36.6426L90.216 36.6457L90.2248 36.6487L90.541 35.7ZM86.591 33.15L85.8521 33.8238L85.8521 33.8238L86.591 33.15ZM84.441 28.85L83.4627 29.057L83.4646 29.0659L83.4666 29.0749L84.441 28.85ZM84.491 22.75L83.5071 22.5711L83.5054 22.581L84.491 22.75ZM85.341 18.55L86.3166 18.7695L86.3178 18.7644L85.341 18.55ZM86.341 14.3L87.3112 14.5426L87.314 14.531L86.341 14.3ZM92.141 3.95L92.7748 4.72354L92.7758 4.72272L92.141 3.95ZM107.991 1.35L107.651 2.2904L107.657 2.29263L107.991 1.35ZM111.941 3.95L111.192 4.61303L111.198 4.61894L111.203 4.62477L111.941 3.95ZM114.091 8.25L115.069 8.03916L114.091 8.25ZM114.041 14.3L115.025 14.4789L115.027 14.469L114.041 14.3ZM113.191 18.55L114.167 18.7695L114.168 18.7644L113.191 18.55ZM112.241 22.75L113.213 22.9844L113.216 22.9716L112.241 22.75ZM106.341 33.15L105.717 32.3682L105.713 32.3719L106.341 33.15ZM107.291 22.5L106.32 22.2625L106.319 22.2641L107.291 22.5ZM108.191 18.5L107.215 18.2831L107.213 18.2935L107.21 18.3039L108.191 18.5ZM108.991 14.5L108.008 14.3186L108.007 14.3211L108.991 14.5ZM108.191 7.05L107.387 7.64445L107.395 7.65552L108.191 7.05ZM95.491 7.05L94.8762 6.26136L94.8762 6.26137L95.491 7.05ZM91.291 14.5L92.2612 14.7425L92.2628 14.7359L91.291 14.5ZM90.341 18.5L91.3159 18.7228L91.3172 18.7169L90.341 18.5ZM89.541 22.5L88.5564 22.325L88.5559 22.3279L89.541 22.5ZM90.291 29.95L89.4785 30.5329L89.4826 30.5387L89.4868 30.5444L90.291 29.95ZM95.891 35.5C94.0144 35.5 92.3399 35.2456 90.8572 34.7513L90.2248 36.6487C91.9421 37.2211 93.8343 37.5 95.891 37.5V35.5ZM90.8749 34.7574C89.4131 34.2397 88.241 33.4754 87.33 32.4762L85.8521 33.8238C87.0077 35.0912 88.4689 36.027 90.2072 36.6426L90.8749 34.7574ZM87.33 32.4762C86.4297 31.4889 85.783 30.2181 85.4154 28.6251L83.4666 29.0749C83.899 30.9486 84.6857 32.5445 85.8521 33.8238L87.33 32.4762ZM85.4194 28.643C85.0861 27.0674 85.0912 25.1672 85.4766 22.919L83.5054 22.581C83.0908 24.9995 83.0626 27.166 83.4627 29.057L85.4194 28.643ZM85.4749 22.9289C85.7393 21.4746 86.0199 20.0882 86.3166 18.7695L84.3654 18.3305C84.0621 19.6784 83.7761 21.0921 83.5071 22.5711L85.4749 22.9289ZM86.3178 18.7644C86.6155 17.4079 86.9466 16.0006 87.3112 14.5425L85.3709 14.0575C85.0021 15.5327 84.6665 16.9588 84.3643 18.3356L86.3178 18.7644ZM87.314 14.531C88.3801 10.0405 90.226 6.81166 92.7748 4.72354L91.5073 3.17646C88.5227 5.62167 86.502 9.29288 85.3681 14.069L87.314 14.531ZM92.7758 4.72272C95.3691 2.59251 98.6338 1.5 102.641 1.5V-0.500002C98.2482 -0.500002 94.513 0.707489 91.5063 3.17727L92.7758 4.72272ZM102.641 1.5C104.548 1.5 106.213 1.77017 107.651 2.29038L108.331 0.409623C106.636 -0.20351 104.734 -0.500002 102.641 -0.500002V1.5ZM107.657 2.29263C109.112 2.80791 110.281 3.58431 111.192 4.61303L112.69 3.28696C111.534 1.98235 110.07 1.02542 108.325 0.407372L107.657 2.29263ZM111.203 4.62477C112.138 5.6479 112.78 6.91614 113.113 8.46084L115.069 8.03916C114.668 6.18386 113.877 4.58544 112.679 3.27523L111.203 4.62477ZM113.113 8.46084C113.445 9.99964 113.441 11.881 113.055 14.131L115.027 14.469C115.441 12.0523 115.47 9.90036 115.069 8.03916L113.113 8.46084ZM113.057 14.1211C112.793 15.5767 112.512 16.9815 112.214 18.3356L114.168 18.7644C114.471 17.3852 114.756 15.9567 115.025 14.4789L113.057 14.1211ZM112.215 18.3305C111.916 19.6631 111.599 21.0623 111.266 22.5284L113.216 22.9716C113.55 21.5043 113.866 20.1036 114.167 18.7695L112.215 18.3305ZM111.269 22.5156C110.17 27.0746 108.292 30.315 105.717 32.3682L106.965 33.9318C109.99 31.5183 112.046 27.8254 113.213 22.9844L111.269 22.5156ZM105.713 32.3719C103.155 34.4367 99.9056 35.5 95.891 35.5V37.5C100.276 37.5 103.994 36.33 106.969 33.9281L105.713 32.3719ZM96.091 33.25C98.9337 33.25 101.467 32.4171 103.649 30.7436L102.433 29.1564C100.615 30.5496 98.515 31.25 96.091 31.25V33.25ZM103.649 30.7436C105.891 29.0248 107.397 26.3034 108.263 22.7359L106.319 22.2641C105.518 25.5633 104.191 27.8085 102.433 29.1564L103.649 30.7436ZM108.262 22.7375C108.632 21.2275 108.935 19.88 109.172 18.6961L107.21 18.3039C106.981 19.4534 106.684 20.7725 106.32 22.2625L108.262 22.7375ZM109.167 18.7169C109.437 17.502 109.706 16.1557 109.975 14.6789L108.007 14.3211C107.742 15.7776 107.478 17.098 107.215 18.2831L109.167 18.7169ZM109.974 14.6814C110.621 11.1788 110.42 8.32784 108.987 6.44448L107.395 7.65552C108.296 8.83882 108.628 10.9545 108.008 14.3186L109.974 14.6814ZM108.995 6.45561C107.603 4.57219 105.318 3.75 102.441 3.75V5.75C104.964 5.75 106.512 6.46114 107.387 7.64439L108.995 6.45561ZM102.441 3.75C99.5681 3.75 97.0311 4.58124 94.8762 6.26136L96.1059 7.83863C97.8843 6.45209 99.9806 5.75 102.441 5.75V3.75ZM94.8762 6.26137C92.6705 7.98099 91.1841 10.7009 90.3192 14.2641L92.2628 14.7359C93.0646 11.4324 94.3782 9.18567 96.1059 7.83863L94.8762 6.26137ZM90.3209 14.2575C89.9525 15.7308 89.6338 17.0728 89.3648 18.2831L91.3172 18.7169C91.5816 17.5272 91.8962 16.2025 92.2612 14.7425L90.3209 14.2575ZM89.3662 18.2772C89.095 19.4633 88.8252 20.813 88.5565 22.325L90.5256 22.675C90.7901 21.187 91.0536 19.8701 91.3159 18.7228L89.3662 18.2772ZM88.5559 22.3279C87.9451 25.823 88.1328 28.6572 89.4785 30.5329L91.1036 29.3671C90.2492 28.1762 89.9369 26.0436 90.5261 22.6721L88.5559 22.3279ZM89.4868 30.5444C90.8811 32.4307 93.186 33.25 96.091 33.25V31.25C93.5294 31.25 91.9676 30.5359 91.0952 29.3556L89.4868 30.5444ZM116.229 35.7L115.415 36.2812L115.437 36.3116L115.461 36.3402L116.229 35.7ZM116.079 34.85L115.101 34.6418L115.098 34.6539L116.079 34.85ZM123.029 2.2L124.007 2.4082L124.01 2.39358L124.013 2.37888L123.029 2.2ZM123.479 1.35L124.13 2.1093L124.137 2.10257L123.479 1.35ZM141.079 1.9L140.746 2.84299L140.754 2.84591L140.763 2.84868L141.079 1.9ZM145.229 4.5L144.491 5.17477L144.496 5.1801L144.501 5.18536L145.229 4.5ZM147.379 8.75L146.401 8.96084L146.403 8.96996L146.405 8.97904L147.379 8.75ZM147.329 14.55L146.348 14.3539L146.348 14.3539L147.329 14.55ZM146.529 18.5L145.549 18.2983L145.549 18.2983L146.529 18.5ZM145.629 22.4L144.659 22.1575L144.656 22.1674L144.654 22.1775L145.629 22.4ZM142.629 30.05L143.467 30.595L143.471 30.5887L142.629 30.05ZM137.429 34.55L137.842 35.4609L137.848 35.458L137.429 34.55ZM121.629 31.75L120.651 31.5415L120.393 32.75H121.629V31.75ZM134.929 30.8L134.54 29.8788L134.54 29.8788L134.929 30.8ZM138.529 27.75L137.697 27.1953L137.692 27.2022L137.688 27.2092L138.529 27.75ZM140.729 22.2L139.755 21.9728L139.755 21.9741L140.729 22.2ZM141.329 19.6L140.361 19.3476L140.357 19.3629L140.354 19.3784L141.329 19.6ZM141.829 17.35L140.852 17.1376L140.848 17.1543L140.845 17.1711L141.829 17.35ZM142.329 14.75L141.348 14.5578L141.345 14.5689L141.343 14.5801L142.329 14.75ZM141.529 7.6L140.719 8.18612L140.726 8.19591L140.733 8.20552L141.529 7.6ZM127.279 5.25V4.25H126.47L126.301 5.04148L127.279 5.25ZM116.979 35C116.91 35 116.895 34.9895 116.913 34.9965C116.922 35.0002 116.937 35.0075 116.954 35.0197C116.971 35.0321 116.986 35.0461 116.997 35.0598L115.461 36.3402C115.868 36.8292 116.439 37 116.979 37V35ZM117.043 35.1188C117.043 35.1196 117.046 35.1232 117.048 35.1289C117.049 35.1315 117.05 35.1339 117.05 35.1358C117.051 35.1378 117.051 35.1388 117.051 35.1387C117.051 35.1387 117.05 35.1323 117.05 35.1176C117.051 35.1028 117.053 35.0793 117.059 35.0461L115.098 34.6539C114.988 35.2037 115.058 35.7814 115.415 36.2812L117.043 35.1188ZM117.057 35.0582L124.007 2.4082L122.051 1.9918L115.101 34.6418L117.057 35.0582ZM124.013 2.37888C124.047 2.18842 124.106 2.12989 124.13 2.10926L122.828 0.590742C122.386 0.970104 122.144 1.47824 122.045 2.02111L124.013 2.37888ZM124.137 2.10257C124.234 2.01782 124.304 2 124.379 2V-2.38419e-06C123.787 -2.38419e-06 123.257 0.215512 122.82 0.597424L124.137 2.10257ZM124.379 2H135.179V-2.38419e-06H124.379V2ZM135.179 2C137.325 2 139.175 2.28851 140.746 2.84299L141.412 0.957008C139.583 0.311489 137.5 -2.38419e-06 135.179 -2.38419e-06V2ZM140.763 2.84868C142.323 3.36878 143.554 4.14987 144.491 5.17477L145.967 3.82523C144.771 2.5168 143.235 1.56455 141.395 0.951315L140.763 2.84868ZM144.501 5.18536C145.428 6.17104 146.068 7.41731 146.401 8.96084L148.356 8.53916C147.956 6.68269 147.163 5.09562 145.957 3.81463L144.501 5.18536ZM146.405 8.97904C146.765 10.5076 146.761 12.2917 146.348 14.3539L148.309 14.7461C148.764 12.4749 148.793 10.3924 148.352 8.52096L146.405 8.97904ZM146.348 14.3539C146.049 15.8526 145.782 17.1673 145.549 18.2983L147.508 18.7017C147.742 17.566 148.009 16.2474 148.309 14.7461L146.348 14.3539ZM145.549 18.2983C145.32 19.4146 145.023 20.7005 144.659 22.1575L146.599 22.6425C146.968 21.1662 147.272 19.8521 147.508 18.7017L145.549 18.2983ZM144.654 22.1775C143.972 25.1641 143.009 27.5994 141.786 29.5113L143.471 30.5887C144.849 28.434 145.886 25.7692 146.604 22.6225L144.654 22.1775ZM141.79 29.505C140.593 31.3468 139.005 32.721 137.01 33.642L137.848 35.458C140.186 34.379 142.065 32.7532 143.467 30.595L141.79 29.505ZM137.016 33.6391C135.056 34.5272 132.461 35 129.179 35V37C132.63 37 135.535 36.5061 137.842 35.4609L137.016 33.6391ZM129.179 35H116.979V37H129.179V35ZM121.629 32.75H129.229V30.75H121.629V32.75ZM129.229 32.75C131.611 32.75 133.655 32.4233 135.318 31.7212L134.54 29.8788C133.203 30.4434 131.446 30.75 129.229 30.75V32.75ZM135.318 31.7212C137.008 31.0077 138.364 29.8562 139.37 28.2908L137.688 27.2092C136.894 28.4438 135.85 29.3256 134.54 29.8788L135.318 31.7212ZM139.361 28.3047C140.382 26.773 141.153 24.7995 141.703 22.4259L139.755 21.9741C139.238 24.2005 138.542 25.927 137.697 27.1953L139.361 28.3047ZM141.703 22.4272C141.936 21.426 142.137 20.5574 142.304 19.8216L140.354 19.3784C140.188 20.1093 139.988 20.974 139.755 21.9728L141.703 22.4272ZM142.297 19.8524C142.502 19.063 142.675 18.2884 142.813 17.5289L140.845 17.1711C140.716 17.8783 140.555 18.6037 140.361 19.3476L142.297 19.8524ZM142.806 17.5624C142.976 16.7787 143.146 15.8975 143.314 14.9199L141.343 14.5801C141.179 15.5359 141.015 16.388 140.852 17.1376L142.806 17.5624ZM143.31 14.9422C143.961 11.6181 143.754 8.87317 142.325 6.99448L140.733 8.20552C141.637 9.3935 141.963 11.4153 141.348 14.5578L143.31 14.9422ZM142.339 7.01388C140.91 5.03776 138.171 4.25 134.629 4.25V6.25C138.02 6.25 139.882 7.02891 140.719 8.18612L142.339 7.01388ZM134.629 4.25H127.279V6.25H134.629V4.25ZM126.301 5.04148L120.651 31.5415L122.607 31.9585L128.257 5.45852L126.301 5.04148ZM146.202 35.5L147.13 35.1286L147.121 35.1072L147.112 35.0862L146.202 35.5ZM146.252 34.45L147.109 34.9645L147.111 34.9614L146.252 34.45ZM165.502 2.1L164.644 1.5855L164.642 1.58863L165.502 2.1ZM166.202 1.3L165.647 0.467951L165.624 0.483346L165.602 0.499998L166.202 1.3ZM172.052 1.3L171.344 2.0071L171.372 2.03426L171.401 2.05926L172.052 1.3ZM172.452 2.1L171.457 2.1995L171.46 2.23371L171.466 2.26761L172.452 2.1ZM177.952 34.45L176.966 34.6176L176.968 34.6319L176.971 34.6461L177.952 34.45ZM177.802 35.6L178.602 36.2L178.602 36.2L177.802 35.6ZM173.602 35.75L172.894 36.4571L172.927 36.4892L172.961 36.5182L173.602 35.75ZM173.202 34.9L174.185 34.7211L174.184 34.7135L173.202 34.9ZM171.902 28.05L172.884 27.8635L172.73 27.05H171.902V28.05ZM155.502 28.05V27.05H154.938L154.646 27.532L155.502 28.05ZM151.202 35.15L152.015 35.7312L152.037 35.7004L152.057 35.668L151.202 35.15ZM150.602 35.75L150.02 34.9363L150.02 34.9363L150.602 35.75ZM157.852 23.75L156.991 23.2409L156.098 24.75H157.852V23.75ZM171.402 23.75V24.75H172.588L172.387 23.5807L171.402 23.75ZM168.352 6L169.337 5.83065L168.876 3.14884L167.491 5.49086L168.352 6ZM147.052 35C146.958 35 146.968 34.9816 147.021 35.0131C147.048 35.0291 147.076 35.0518 147.098 35.0786C147.12 35.1046 147.128 35.1245 147.13 35.1286L145.273 35.8714C145.414 36.2236 145.657 36.5308 146.007 36.7369C146.344 36.935 146.712 37 147.052 37V35ZM147.112 35.0862C147.098 35.0549 147.092 35.0341 147.09 35.0233C147.089 35.0178 147.088 35.0142 147.088 35.0125C147.088 35.0115 147.088 35.0109 147.088 35.0106C147.088 35.0102 147.088 35.0101 147.088 35.0101C147.088 35.0101 147.088 35.0101 147.088 35.0101C147.088 35.0101 147.088 35.0101 147.088 35.0099C147.088 35.0096 147.088 35.0081 147.089 35.0054C147.091 35.0001 147.096 34.9866 147.109 34.9645L145.394 33.9355C145.018 34.5627 144.994 35.2607 145.291 35.9138L147.112 35.0862ZM147.111 34.9614L166.361 2.61137L164.642 1.58863L145.392 33.9386L147.111 34.9614ZM166.359 2.61449C166.503 2.37391 166.654 2.2106 166.802 2.1L165.602 0.499998C165.216 0.789395 164.9 1.15942 164.644 1.5855L166.359 2.61449ZM166.756 2.13205C166.861 2.06202 167.025 2 167.302 2V-2.38419e-06C166.711 -2.38419e-06 166.142 0.137979 165.647 0.467951L166.756 2.13205ZM167.302 2H171.102V-2.38419e-06H167.302V2ZM171.102 2C171.245 2 171.327 2.01708 171.363 2.02858C171.395 2.03863 171.376 2.03891 171.344 2.0071L172.759 0.592895C172.292 0.126148 171.662 -2.38419e-06 171.102 -2.38419e-06V2ZM171.401 2.05926C171.42 2.07602 171.446 2.09697 171.457 2.1995L173.447 2.0005C173.39 1.43637 173.149 0.923983 172.702 0.540742L171.401 2.05926ZM171.466 2.26761L176.966 34.6176L178.937 34.2824L173.437 1.93239L171.466 2.26761ZM176.971 34.6461C177.006 34.8211 177.005 34.9282 176.997 34.9832C176.991 35.0316 176.983 35.0251 177.002 35L178.602 36.2C179.045 35.6082 179.058 34.8854 178.932 34.2539L176.971 34.6461ZM177.002 35C176.992 35.0132 176.987 35.017 176.988 35.0157C176.989 35.0152 176.991 35.0137 176.994 35.0117C176.997 35.0097 177 35.0076 177.004 35.0056C177.008 35.0036 177.012 35.002 177.016 35.0008C177.019 34.9996 177.021 34.999 177.022 34.9988C177.024 34.9984 177.018 35 177.002 35V37C177.65 37 178.213 36.7185 178.602 36.2L177.002 35ZM177.002 35H174.452V37H177.002V35ZM174.452 35C174.225 35 174.201 34.9478 174.242 34.9818L172.961 36.5182C173.402 36.8856 173.945 37 174.452 37V35ZM174.309 35.0429C174.292 35.0261 174.227 34.9505 174.185 34.7211L172.218 35.0789C172.309 35.5829 172.511 36.0739 172.894 36.4571L174.309 35.0429ZM174.184 34.7135L172.884 27.8635L170.919 28.2365L172.219 35.0865L174.184 34.7135ZM171.902 27.05H155.502V29.05H171.902V27.05ZM154.646 27.532L150.346 34.632L152.057 35.668L156.357 28.568L154.646 27.532ZM150.388 34.5688C150.285 34.7123 150.164 34.8337 150.02 34.9363L151.183 36.5637C151.506 36.3329 151.784 36.0544 152.015 35.7312L150.388 34.5688ZM150.02 34.9363C149.983 34.9629 149.911 35 149.752 35V37C150.258 37 150.753 36.8704 151.183 36.5637L150.02 34.9363ZM149.752 35H147.052V37H149.752V35ZM157.852 24.75H171.402V22.75H157.852V24.75ZM172.387 23.5807L169.337 5.83065L167.366 6.16935L170.416 23.9193L172.387 23.5807ZM167.491 5.49086L156.991 23.2409L158.712 24.2591L169.212 6.50914L167.491 5.49086ZM191.594 35.7L190.78 36.2812L190.829 36.3486L190.887 36.4071L191.594 35.7ZM191.444 34.85L190.466 34.6427L190.464 34.6539L191.444 34.85ZM193.944 23.05L194.922 23.2573L194.983 22.9708L194.88 22.6969L193.944 23.05ZM186.244 2.65L185.295 2.96623L185.302 2.98481L185.309 3.00313L186.244 2.65ZM186.394 1.55L185.585 0.961829L185.58 0.969136L185.575 0.976537L186.394 1.55ZM190.494 1.25L189.787 1.9571L189.857 2.02712L189.939 2.08205L190.494 1.25ZM190.944 1.85L190.008 2.20114L190.011 2.20937L190.944 1.85ZM197.144 17.95L196.211 18.3094L196.834 19.9263L197.922 18.5782L197.144 17.95ZM210.144 1.85L210.922 2.47822L210.96 2.43123L210.992 2.38L210.144 1.85ZM210.744 1.25L211.24 2.11824L211.257 2.10845L211.274 2.098L210.744 1.25ZM215.594 1.55L214.598 1.64053L214.598 1.64053L215.594 1.55ZM215.244 2.65L216.024 3.27655L216.039 3.25772L216.053 3.23817L215.244 2.65ZM198.844 23.05L198.065 22.4234L197.917 22.6077L197.867 22.8388L198.844 23.05ZM196.294 34.85L195.317 34.6388L195.315 34.6463L195.314 34.6539L196.294 34.85ZM195.844 35.7L196.495 36.4593L196.524 36.4343L196.551 36.4071L195.844 35.7ZM192.394 35C192.327 35 192.299 34.9901 192.295 34.9887C192.293 34.9879 192.294 34.9882 192.297 34.9901C192.3 34.9919 192.302 34.9934 192.301 34.9929L190.887 36.4071C191.308 36.8278 191.847 37 192.394 37V35ZM192.408 35.1188C192.408 35.1196 192.411 35.1232 192.413 35.1289C192.414 35.1315 192.415 35.1339 192.416 35.1358C192.416 35.1378 192.416 35.1388 192.416 35.1387C192.416 35.1387 192.415 35.1323 192.416 35.1176C192.416 35.1028 192.418 35.0793 192.425 35.0461L190.464 34.6539C190.354 35.2037 190.423 35.7814 190.78 36.2812L192.408 35.1188ZM192.422 35.0573L194.922 23.2573L192.966 22.8427L190.466 34.6427L192.422 35.0573ZM194.88 22.6969L187.18 2.29686L185.309 3.00313L193.009 23.4031L194.88 22.6969ZM187.193 2.33377C187.168 2.25868 187.171 2.22186 187.172 2.21011C187.174 2.1997 187.179 2.17295 187.213 2.12346L185.575 0.976537C185.152 1.58008 185.066 2.27869 185.295 2.96623L187.193 2.33377ZM187.203 2.13817C187.292 2.01616 187.348 2 187.444 2V-2.38419e-06C186.674 -2.38419e-06 186.03 0.350506 185.585 0.961829L187.203 2.13817ZM187.444 2H189.794V-2.38419e-06H187.444V2ZM189.794 2C189.853 2 189.869 2.00828 189.858 2.00424C189.852 2.0021 189.841 1.99736 189.827 1.98862C189.813 1.97979 189.799 1.96899 189.787 1.9571L191.201 0.542891C190.799 0.141054 190.283 -2.38419e-06 189.794 -2.38419e-06V2ZM189.939 2.08205C189.941 2.08333 189.947 2.08702 189.957 2.1C189.967 2.11422 189.987 2.14466 190.008 2.20112L191.88 1.49888C191.721 1.07314 191.454 0.68791 191.049 0.417948L189.939 2.08205ZM190.011 2.20937L196.211 18.3094L198.077 17.5906L191.877 1.49063L190.011 2.20937ZM197.922 18.5782L210.922 2.47822L209.366 1.22177L196.366 17.3218L197.922 18.5782ZM210.992 2.38C211.086 2.22951 211.173 2.15669 211.24 2.11824L210.248 0.381756C209.849 0.609973 209.535 0.937153 209.296 1.32L210.992 2.38ZM211.274 2.098C211.372 2.03671 211.486 2 211.644 2V-2.38419e-06C211.135 -2.38419e-06 210.649 0.129949 210.214 0.401998L211.274 2.098ZM211.644 2H214.744V-2.38419e-06H211.644V2ZM214.744 2C214.823 2 214.864 2.007 214.878 2.01009C214.892 2.01311 214.862 2.00874 214.813 1.97707C214.76 1.94227 214.7 1.88588 214.656 1.80834C214.612 1.73335 214.601 1.66982 214.598 1.64053L216.59 1.45947C216.548 1.00212 216.325 0.573173 215.9 0.297928C215.528 0.0571112 215.101 -2.38419e-06 214.744 -2.38419e-06V2ZM214.598 1.64053C214.605 1.71333 214.594 1.844 214.435 2.06183L216.053 3.23817C216.428 2.72266 216.65 2.12 216.59 1.45946L214.598 1.64053ZM214.465 2.02344L198.065 22.4234L199.624 23.6766L216.024 3.27655L214.465 2.02344ZM197.867 22.8388L195.317 34.6388L197.272 35.0612L199.822 23.2612L197.867 22.8388ZM195.314 34.6539C195.284 34.7998 195.226 34.9036 195.137 34.9929L196.551 36.4071C196.929 36.0298 197.171 35.5669 197.275 35.0461L195.314 34.6539ZM195.193 34.9407C195.175 34.9566 195.12 35 194.944 35V37C195.501 37 196.047 36.8434 196.495 36.4593L195.193 34.9407ZM194.944 35H192.394V37H194.944V35Z" fill="black" mask="url(#path-1-outside-1_4332_15)"/>
</g>
<defs>
<filter id="filter0_d_4332_15" x="0.528076" y="0.5" width="219.116" height="44" filterUnits="userSpaceOnUse" color-interpolation-filters="sRGB">
<feFlood flood-opacity="0" result="BackgroundImageFix"/>
<feColorMatrix in="SourceAlpha" type="matrix" values="0 0 0 0 0 0 0 0 0 0 0 0 0 0 0 0 0 0 127 0" result="hardAlpha"/>
<feOffset dy="4"/>
<feGaussianBlur stdDeviation="2"/>
<feComposite in2="hardAlpha" operator="out"/>
<feColorMatrix type="matrix" values="0 0 0 0 0 0 0 0 0 0 0 0 0 0 0 0 0 0 0.25 0"/>
<feBlend mode="normal" in2="BackgroundImageFix" result="effect1_dropShadow_4332_15"/>
<feBlend mode="normal" in="SourceGraphic" in2="effect1_dropShadow_4332_15" result="shape"/>
</filter>
</defs>
</svg>
