<svg width="32" height="32" viewBox="0 0 32 32" fill="none" xmlns="http://www.w3.org/2000/svg">
<g clip-path="url(#clip0_4079_474)">
<path d="M23.4841 20.688C25.4207 18.0453 26.2881 14.7689 25.9127 11.5143C25.5373 8.25957 23.9469 5.26663 21.4596 3.13422C18.9723 1.0018 15.7716 -0.112836 12.4978 0.0133103C9.22393 0.139457 6.11846 1.49708 3.80262 3.81457C1.48679 6.13206 0.131388 9.23851 0.00758408 12.5124C-0.11622 15.7863 1.00071 18.9863 3.1349 21.472C5.2691 23.9578 8.26318 25.5461 11.5181 25.9191C14.7731 26.2922 18.0488 25.4224 20.6901 23.484H20.6881C20.7468 23.564 20.8121 23.6406 20.8841 23.714L28.5841 31.414C28.9591 31.7892 29.4678 32.0002 29.9984 32.0004C30.5289 32.0005 31.0378 31.79 31.4131 31.415C31.7884 31.0399 31.9993 30.5312 31.9995 30.0007C31.9997 29.4701 31.7891 28.9612 31.4141 28.586L23.7141 20.886C23.6426 20.8135 23.5657 20.7487 23.4841 20.688ZM24.0001 13C24.0001 14.4445 23.7156 15.8749 23.1628 17.2095C22.61 18.5441 21.7997 19.7567 20.7783 20.7781C19.7568 21.7996 18.5442 22.6098 17.2096 23.1626C15.875 23.7154 14.4446 24 13.0001 24C11.5555 24 10.1252 23.7154 8.79057 23.1626C7.45599 22.6098 6.24336 21.7996 5.22191 20.7781C4.20047 19.7567 3.39021 18.5441 2.83741 17.2095C2.28461 15.8749 2.00009 14.4445 2.00009 13C2.00009 10.0826 3.15901 7.28468 5.22191 5.22178C7.28481 3.15888 10.0827 1.99996 13.0001 1.99996C15.9175 1.99996 18.7154 3.15888 20.7783 5.22178C22.8412 7.28468 24.0001 10.0826 24.0001 13Z" fill="#2F322F"/>
</g>
<defs>
<clipPath id="clip0_4079_474">
<rect width="32" height="32" fill="white"/>
</clipPath>
</defs>
</svg>
