<svg width="48" height="49" viewBox="0 0 48 49" fill="none" xmlns="http://www.w3.org/2000/svg">
<g filter="url(#filter0_d_4337_72)">
<path d="M24 28C22.0109 28 20.1032 27.2098 18.6967 25.8033C17.2902 24.3968 16.5 22.4891 16.5 20.5C16.5 18.5109 17.2902 16.6032 18.6967 15.1967C20.1032 13.7902 22.0109 13 24 13C25.9891 13 27.8968 13.7902 29.3033 15.1967C30.7098 16.6032 31.5 18.5109 31.5 20.5C31.5 22.4891 30.7098 24.3968 29.3033 25.8033C27.8968 27.2098 25.9891 28 24 28ZM24 30.5C26.6522 30.5 29.1957 29.4464 31.0711 27.5711C32.9464 25.6957 34 23.1522 34 20.5C34 17.8478 32.9464 15.3043 31.0711 13.4289C29.1957 11.5536 26.6522 10.5 24 10.5C21.3478 10.5 18.8043 11.5536 16.9289 13.4289C15.0536 15.3043 14 17.8478 14 20.5C14 23.1522 15.0536 25.6957 16.9289 27.5711C18.8043 29.4464 21.3478 30.5 24 30.5ZM24 0.5C24.3315 0.5 24.6495 0.631696 24.8839 0.866117C25.1183 1.10054 25.25 1.41848 25.25 1.75V6.75C25.25 7.08152 25.1183 7.39946 24.8839 7.63388C24.6495 7.8683 24.3315 8 24 8C23.6685 8 23.3505 7.8683 23.1161 7.63388C22.8817 7.39946 22.75 7.08152 22.75 6.75V1.75C22.75 1.41848 22.8817 1.10054 23.1161 0.866117C23.3505 0.631696 23.6685 0.5 24 0.5ZM24 33C24.3315 33 24.6495 33.1317 24.8839 33.3661C25.1183 33.6005 25.25 33.9185 25.25 34.25V39.25C25.25 39.5815 25.1183 39.8995 24.8839 40.1339C24.6495 40.3683 24.3315 40.5 24 40.5C23.6685 40.5 23.3505 40.3683 23.1161 40.1339C22.8817 39.8995 22.75 39.5815 22.75 39.25V34.25C22.75 33.9185 22.8817 33.6005 23.1161 33.3661C23.3505 33.1317 23.6685 33 24 33ZM44 20.5C44 20.8315 43.8683 21.1495 43.6339 21.3839C43.3995 21.6183 43.0815 21.75 42.75 21.75H37.75C37.4185 21.75 37.1005 21.6183 36.8661 21.3839C36.6317 21.1495 36.5 20.8315 36.5 20.5C36.5 20.1685 36.6317 19.8505 36.8661 19.6161C37.1005 19.3817 37.4185 19.25 37.75 19.25H42.75C43.0815 19.25 43.3995 19.3817 43.6339 19.6161C43.8683 19.8505 44 20.1685 44 20.5ZM11.5 20.5C11.5 20.8315 11.3683 21.1495 11.1339 21.3839C10.8995 21.6183 10.5815 21.75 10.25 21.75H5.25C4.91848 21.75 4.60054 21.6183 4.36612 21.3839C4.1317 21.1495 4 20.8315 4 20.5C4 20.1685 4.1317 19.8505 4.36612 19.6161C4.60054 19.3817 4.91848 19.25 5.25 19.25H10.25C10.5815 19.25 10.8995 19.3817 11.1339 19.6161C11.3683 19.8505 11.5 20.1685 11.5 20.5ZM38.1425 6.3575C38.3768 6.59191 38.5085 6.90979 38.5085 7.24125C38.5085 7.57271 38.3768 7.89059 38.1425 8.125L34.6075 11.6625C34.4913 11.7786 34.3533 11.8706 34.2016 11.9333C34.0498 11.9961 33.8871 12.0283 33.7229 12.0282C33.3912 12.028 33.0731 11.896 32.8387 11.6613C32.7227 11.545 32.6307 11.4071 32.5679 11.2553C32.5052 11.1035 32.4729 10.9409 32.4731 10.7766C32.4733 10.4449 32.6053 10.1269 32.84 9.8925L36.375 6.3575C36.6094 6.12316 36.9273 5.99152 37.2588 5.99152C37.5902 5.99152 37.9081 6.12316 38.1425 6.3575ZM15.16 29.34C15.3943 29.5744 15.526 29.8923 15.526 30.2237C15.526 30.5552 15.3943 30.8731 15.16 31.1075L11.625 34.6425C11.3892 34.8702 11.0735 34.9962 10.7457 34.9933C10.418 34.9905 10.1045 34.859 9.87273 34.6273C9.64097 34.3955 9.50951 34.082 9.50666 33.7542C9.50381 33.4265 9.6298 33.1108 9.8575 32.875L13.3925 29.34C13.6269 29.1057 13.9448 28.974 14.2762 28.974C14.6077 28.974 14.9256 29.1057 15.16 29.34ZM38.1425 34.6425C37.9081 34.8768 37.5902 35.0085 37.2588 35.0085C36.9273 35.0085 36.6094 34.8768 36.375 34.6425L32.84 31.1075C32.6123 30.8717 32.4863 30.556 32.4892 30.2282C32.492 29.9005 32.6235 29.587 32.8552 29.3552C33.087 29.1235 33.4005 28.992 33.7282 28.9892C34.056 28.9863 34.3717 29.1123 34.6075 29.34L38.1425 32.875C38.3768 33.1094 38.5085 33.4273 38.5085 33.7588C38.5085 34.0902 38.3768 34.4081 38.1425 34.6425ZM15.16 11.6625C14.9256 11.8968 14.6077 12.0285 14.2762 12.0285C13.9448 12.0285 13.6269 11.8968 13.3925 11.6625L9.8575 8.125C9.73811 8.00969 9.64288 7.87176 9.57737 7.71926C9.51186 7.56675 9.47738 7.40273 9.47594 7.23675C9.47449 7.07078 9.50612 6.90618 9.56897 6.75256C9.63182 6.59894 9.72464 6.45937 9.84201 6.34201C9.95937 6.22464 10.0989 6.13182 10.2526 6.06897C10.4062 6.00612 10.5708 5.97449 10.7368 5.97594C10.9027 5.97738 11.0668 6.01186 11.2193 6.07737C11.3718 6.14288 11.5097 6.23811 11.625 6.3575L15.16 9.8925C15.2764 10.0086 15.3688 10.1466 15.4318 10.2984C15.4948 10.4503 15.5272 10.6131 15.5272 10.7775C15.5272 10.9419 15.4948 11.1047 15.4318 11.2566C15.3688 11.4084 15.2764 11.5464 15.16 11.6625Z" fill="#E3E5E2"/>
</g>
<defs>
<filter id="filter0_d_4337_72" x="0" y="0.5" width="48" height="48" filterUnits="userSpaceOnUse" color-interpolation-filters="sRGB">
<feFlood flood-opacity="0" result="BackgroundImageFix"/>
<feColorMatrix in="SourceAlpha" type="matrix" values="0 0 0 0 0 0 0 0 0 0 0 0 0 0 0 0 0 0 127 0" result="hardAlpha"/>
<feOffset dy="4"/>
<feGaussianBlur stdDeviation="2"/>
<feComposite in2="hardAlpha" operator="out"/>
<feColorMatrix type="matrix" values="0 0 0 0 0 0 0 0 0 0 0 0 0 0 0 0 0 0 0.25 0"/>
<feBlend mode="normal" in2="BackgroundImageFix" result="effect1_dropShadow_4337_72"/>
<feBlend mode="normal" in="SourceGraphic" in2="effect1_dropShadow_4337_72" result="shape"/>
</filter>
</defs>
</svg>
