<svg width="152" height="20" viewBox="0 0 152 20" fill="none" xmlns="http://www.w3.org/2000/svg">
<ellipse cx="9.7621" cy="9.99998" rx="5.33271" ry="5.42857" fill="#003720"/>
<ellipse cx="24.9182" cy="9.99998" rx="5.33271" ry="5.42857" fill="#067546"/>
<ellipse cx="40.0744" cy="9.99998" rx="5.33271" ry="5.42857" fill="#067546"/>
<ellipse cx="55.2305" cy="9.99998" rx="5.33271" ry="5.42857" fill="#067546"/>
<ellipse cx="70.3866" cy="9.99998" rx="5.33271" ry="5.42857" fill="#067546"/>
<ellipse cx="85.5428" cy="9.99998" rx="5.33271" ry="5.42857" fill="#067546"/>
<ellipse cx="100.699" cy="9.99998" rx="5.33271" ry="5.42857" fill="#067546"/>
<ellipse cx="115.855" cy="9.99998" rx="5.33271" ry="5.42857" fill="#067546"/>
<ellipse cx="131.011" cy="9.99998" rx="5.33271" ry="5.42857" fill="#067546"/>
<ellipse cx="146.167" cy="9.99998" rx="5.33271" ry="5.42857" fill="#067546"/>
<path d="M1.5 8.75C1.5 4.19365 5.19365 0.5 9.75 0.5C14.3063 0.5 18 4.19365 18 8.75V11.25C18 15.8063 14.3063 19.5 9.75 19.5C5.19365 19.5 1.5 15.8063 1.5 11.25V8.75Z" stroke="#003720"/>
</svg>
